<svg id="Layer_1" data-name="Layer 1" xmlns="http://www.w3.org/2000/svg" viewBox="0 0 1059.28 322.2"><defs><style>.cls-1{fill:#ffd04b;}</style></defs><title>20200317c-kenmei-logo-banner-variation-yellow</title><g id="Logos"><g id="Expanded"><g id="logo"><path id="shape4" class="cls-1" d="M382.69,309.7a7.48,7.48,0,0,0-4.4-3.74L258.39,267.6a7.4,7.4,0,0,0-2.32-.37,7.62,7.62,0,0,0-5.35,2.22l-.87.87h0a7.44,7.44,0,0,0-1.84,3,7.58,7.58,0,0,0,4.87,9.51l119.9,38.35a7.31,7.31,0,0,0,2.32.37,7.58,7.58,0,0,0,5.34-2.22h0l.87-.88a7.37,7.37,0,0,0,1.84-3A7.49,7.49,0,0,0,382.69,309.7Z"/><path id="shape_3" data-name="shape 3" class="cls-1" d="M269,93.12l41.12,167.46c1.12,4.55,4.9,5.29,10.15,6.31l.38.08,30.86,2.15a5.11,5.11,0,0,0,3.6-1.7h0l.87-.88a10,10,0,0,0,2.6-8.85L317.43,90.24c-.58-2.38-1.52-3.78-3.15-4.71s-3.63-1.34-7.38-1.69L276.23,81.7a6.13,6.13,0,0,0-4.51,1.77l-.87.86h0C268.9,86.3,268.14,89.79,269,93.12Z"/><path id="shape2" class="cls-1" d="M255.46,223.22l-.05-168.33a14.2,14.2,0,0,0-9.95-13.54L171.64,18.43a14.05,14.05,0,0,0-4.27-.66A14.41,14.41,0,0,0,159,20.5a14.69,14.69,0,0,0-1.64,1.41l-.87.87h0a14.26,14.26,0,0,0-4.16,10l.05,162.74c0,10.49-3.24,20.21-8.68,26a18.3,18.3,0,0,1-1.86,1.57,15.44,15.44,0,0,1-9.24,3,22.22,22.22,0,0,1-6.91-1.21L10.74,187.72a7.3,7.3,0,0,0-2.31-.37,7.62,7.62,0,0,0-5.35,2.22l-.87.87h0a7.55,7.55,0,0,0-1.38,8.77A7.56,7.56,0,0,0,5.23,203l114.91,37.17a37.39,37.39,0,0,0,11.63,2,30.61,30.61,0,0,0,18-5.85,34.09,34.09,0,0,0,4-3.45h0l.88-.87a44.86,44.86,0,0,0,10-16.19,61.83,61.83,0,0,0,3.61-21v-23l71.18,22.71v29.66a99,99,0,0,1-1.57,19.42c-1,4.81-2.5,8.37-4.46,10.6a9.74,9.74,0,0,1-1,.77,9.19,9.19,0,0,1-5.11,1.27c-3.66,0-8.45-1.26-14.23-3.76A7.54,7.54,0,0,0,204.8,254l-.88.87h0a7.47,7.47,0,0,0-1.59,2.34,7.57,7.57,0,0,0,3.92,9.93c7.68,3.32,14.52,5,20.33,5a23.4,23.4,0,0,0,13.3-3.75,23.75,23.75,0,0,0,3.74-3.06h0l.88-.88c4.29-4.3,7.24-10.35,9-18.51A107.42,107.42,0,0,0,255.46,223.22ZM168.25,34.33l71.19,22.11V96L168.27,73.29Zm0,56L239.46,113l0,64.44-71.19-22.72Z"/><path id="shape1" class="cls-1" d="M56.27,175.47a11.93,11.93,0,0,0,8.34,11.4l59.53,18.92a11.88,11.88,0,0,0,3.62.56,12,12,0,0,0,7.07-2.3,10.7,10.7,0,0,0,1.37-1.19h0l.87-.87a12.06,12.06,0,0,0,3.51-8.46l0-162.65a11.92,11.92,0,0,0-8.34-11.39L72.67.55A12,12,0,0,0,62,2.31,12.94,12.94,0,0,0,60.6,3.5l-.87.87h0a12.06,12.06,0,0,0-3.52,8.46ZM72.19,17.4l52.39,16.65,0,69.26L72.21,86.41Zm0,86,52.38,16.91,0,68.62L72.24,172.3Z"/></g><g id="kenmei"><path id="i" class="cls-1" d="M1037.72,117.74a11.07,11.07,0,0,1-10.87-10.87v-3.05a11.09,11.09,0,0,1,10.87-10.88h10.69a11.1,11.1,0,0,1,10.87,10.88v3.05a11.09,11.09,0,0,1-10.87,10.87Zm0,118.26a11.07,11.07,0,0,1-10.87-10.87V147.69a11.09,11.09,0,0,1,10.87-10.88h10.69a11.1,11.1,0,0,1,10.87,10.88v77.44A11.09,11.09,0,0,1,1048.41,236Z"/><path id="e" class="cls-1" d="M961.81,237.91q-25.95,0-40-13.16t-14-38.34q0-25,12.49-38.25t36.15-13.25q45.39,0,46.16,49.59a10,10,0,0,1-3.53,7.73,11.88,11.88,0,0,1-8.11,3.14H940.06c-1.27,0-1.78.58-1.52,1.72q1.51,10.49,8.11,15t19.74,4.49a76.75,76.75,0,0,0,18.5-2.48,8,8,0,0,1,7.15,1.52,7.88,7.88,0,0,1,3.15,6.49v.38a14.07,14.07,0,0,1-3,8.68,11.56,11.56,0,0,1-7.53,4.67A122.57,122.57,0,0,1,961.81,237.91ZM957,155.7q-8.58,0-13,4.48t-5.53,15.36c0,1,.44,1.52,1.33,1.52h32.24a1.52,1.52,0,0,0,1.72-1.71Q973.07,155.7,957,155.7Z"/><path id="m" class="cls-1" d="M763.05,236a11.09,11.09,0,0,1-10.87-10.87V147.69a11.1,11.1,0,0,1,10.87-10.88h7.06a10.51,10.51,0,0,1,7.73,3.15,12,12,0,0,1,3.53,7.73l.19,1.71a.17.17,0,0,0,.19.19c.25,0,.38-.06.38-.19q11.25-14.49,25.75-14.49,8.77,0,13.92,3.15t9.54,11.15a.33.33,0,0,0,.38.38l.38-.38q13.17-14.29,27.47-14.3,16.21,0,23.46,8.68t7.25,29.47v52.07A11.07,11.07,0,0,1,879.41,236H871a11.09,11.09,0,0,1-10.88-10.87V175q0-10.29-2.29-13.63T849.27,158a12.78,12.78,0,0,0-8.49,3.62q-4.1,3.63-4.1,7.06v56.46A11.07,11.07,0,0,1,825.81,236h-8.39a11.09,11.09,0,0,1-10.88-10.87V175q0-10.29-2.19-13.63T795.86,158a13.1,13.1,0,0,0-8.58,3.62q-4.2,3.63-4.2,7.06v56.46A11.07,11.07,0,0,1,772.21,236Z"/><path id="n" class="cls-1" d="M645.94,236a10.1,10.1,0,0,1-7.53-3.24,10.58,10.58,0,0,1-3.15-7.63V147.69a10.58,10.58,0,0,1,3.15-7.63,10.11,10.11,0,0,1,7.53-3.25h7.82a10.51,10.51,0,0,1,7.73,3.15,11.22,11.22,0,0,1,3.33,7.73l.19,1.52c0,.13.07.19.2.19l.38-.38q12.39-14.11,29.75-14.11t25,9.82q7.62,9.83,7.63,33.48v46.92a10.58,10.58,0,0,1-3.15,7.63,10.12,10.12,0,0,1-7.53,3.24h-8.39A11.09,11.09,0,0,1,698,225.13v-46q0-11.44-3-15.74t-11.06-4.29q-6.67,0-12.3,5.44T666,176.3v48.83a10.58,10.58,0,0,1-3.15,7.63,10.14,10.14,0,0,1-7.53,3.24Z"/><path id="e-2" data-name="e" class="cls-1" d="M575,237.91q-25.95,0-40-13.16t-14-38.34q0-25,12.49-38.25t36.14-13.25q45.4,0,46.16,49.59a10,10,0,0,1-3.52,7.73,11.88,11.88,0,0,1-8.11,3.14H553.24c-1.27,0-1.78.58-1.52,1.72q1.51,10.49,8.1,15t19.74,4.49a76.62,76.62,0,0,0,18.5-2.48,8,8,0,0,1,7.16,1.52,7.88,7.88,0,0,1,3.15,6.49v.38a14.07,14.07,0,0,1-3,8.68,11.55,11.55,0,0,1-7.54,4.67A122.39,122.39,0,0,1,575,237.91Zm-4.77-82.21q-8.6,0-13,4.48t-5.53,15.36c0,1,.44,1.52,1.33,1.52h32.24a1.51,1.51,0,0,0,1.71-1.71Q586.24,155.7,570.22,155.7Z"/><path id="k" class="cls-1" d="M434.79,236a10.14,10.14,0,0,1-7.54-3.24,10.61,10.61,0,0,1-3.14-7.63V103.82a10.61,10.61,0,0,1,3.14-7.63,10.15,10.15,0,0,1,7.54-3.25h9.35a10.15,10.15,0,0,1,7.53,3.25,10.58,10.58,0,0,1,3.15,7.63V174.2a.17.17,0,0,0,.19.19l.38-.19,23.84-29a21.68,21.68,0,0,1,17.55-8.4h13.73a4.73,4.73,0,0,1,4.49,2.87,4.53,4.53,0,0,1-.67,5.34l-32.62,38.34a1.84,1.84,0,0,0,0,2.48l33,41.77a5,5,0,0,1,.48,5.53,4.87,4.87,0,0,1-4.68,2.86H496.78a21,21,0,0,1-17.36-8.58l-24-31.28A.55.55,0,0,0,455,196a.17.17,0,0,0-.19.19v29a10.58,10.58,0,0,1-3.15,7.63,10.14,10.14,0,0,1-7.53,3.24Z"/></g></g></g></svg>