<svg version="1.1" id="Layer_1" xmlns="http://www.w3.org/2000/svg" x="0" y="0" viewBox="0 0 383.52 322.2" xml:space="preserve"><style>.st3{fill:#ffd04b}</style><g id="Logos"><g id="Symbol_Only"><g id="logo_2_"><path id="shape4_2_" class="st3" d="M382.69 309.7c-.92-1.79-2.48-3.12-4.4-3.74l-119.9-38.36c-.76-.24-1.54-.37-2.32-.37-1.99 0-3.94.81-5.35 2.22l-.87.87c-.85.85-1.47 1.86-1.84 3-1.27 3.96.91 8.23 4.87 9.51l119.9 38.35c.75.25 1.53.37 2.32.37 2 0 3.93-.82 5.34-2.22l.01.01.87-.87c.85-.85 1.47-1.86 1.84-3.01.61-1.92.45-3.97-.47-5.76z"/><path id="shape3_1_" class="st3" d="M268.96 93.12l41.12 167.46c1.12 4.55 4.91 5.29 10.15 6.32l.38.07 30.86 2.16c1.25 0 2.49-.59 3.61-1.7l.01.01.87-.87c2.22-2.22 3.31-5.94 2.6-8.85L317.43 90.24c-.58-2.37-1.52-3.78-3.15-4.71-1.49-.85-3.63-1.34-7.38-1.68l-30.67-2.14c-1.83 0-3.34.59-4.51 1.76l-.87.86-.01.01h.01c-1.95 1.96-2.71 5.45-1.89 8.78z"/><path id="shape2_2_" class="st3" d="M255.46 223.22l-.05-168.33c0-6.21-4-11.64-9.95-13.54l-73.82-22.93c-1.38-.44-2.82-.66-4.27-.66-3 0-5.99.97-8.4 2.74-.58.43-1.14.9-1.64 1.41l-.87.87-.01.01.01.01c-2.65 2.65-4.17 6.29-4.17 10.04l.05 162.74c0 10.49-3.24 20.21-8.68 26-.67.63-1.27 1.14-1.86 1.56-2.72 1.97-5.83 2.97-9.24 2.97-2.16 0-4.48-.41-6.91-1.21L10.74 187.72c-.75-.24-1.53-.37-2.32-.37-1.99 0-3.94.81-5.34 2.21l-.87.87c-.85.85-1.47 1.87-1.84 3.01-.62 1.92-.46 3.96.46 5.75.92 1.8 2.48 3.13 4.4 3.75l114.91 37.17c3.96 1.3 7.87 1.96 11.62 1.96 8.2 0 14.32-3.19 18.02-5.86 1.4-1.01 2.75-2.17 4.03-3.45l.87-.87c4.19-4.19 7.65-9.79 10-16.19 2.37-6.44 3.62-13.72 3.62-21.04l-.01-22.97 71.19 22.71.01 29.66c0 7.87-.53 14.4-1.57 19.42-1 4.8-2.5 8.37-4.46 10.59-.37.33-.69.58-.99.77-1.29.85-3 1.28-5.1 1.28-3.67 0-8.45-1.27-14.23-3.76-.96-.41-1.96-.62-3-.62-1.99 0-3.93.8-5.34 2.21l-.87.87.01.01c-.68.68-1.21 1.46-1.59 2.33-1.65 3.82.11 8.27 3.93 9.93 7.68 3.32 14.52 5.01 20.32 5.01 5.11 0 9.46-1.23 13.3-3.75 1.32-.87 2.57-1.89 3.74-3.06l.01.01.87-.87c4.3-4.3 7.24-10.35 9-18.51 1.32-6.18 1.95-13.4 1.94-22.7zM168.25 34.33l71.19 22.11.01 39.57-71.19-22.72-.01-38.96zm.02 55.97l71.19 22.7.02 64.43-71.19-22.72-.02-64.41z"/><path id="shape1_2_" class="st3" d="M56.27 175.47c0 5.23 3.35 9.81 8.34 11.4l59.53 18.92c1.19.37 2.41.56 3.61.56 2.53 0 5.04-.82 7.08-2.3.47-.34.93-.74 1.37-1.19l.01.01.01-.01.86-.86c2.23-2.23 3.52-5.32 3.51-8.47l-.05-162.64c0-5.23-3.35-9.81-8.34-11.4L72.67.55C71.51.19 70.29 0 69.07 0c-2.54 0-5.05.82-7.08 2.31-.49.36-.96.76-1.39 1.19l-.87.87.01.01c-2.24 2.24-3.52 5.31-3.52 8.46l.05 162.63zM72.19 17.4l52.39 16.65.02 69.26-52.39-16.9-.02-69.01zm.03 86.02l52.39 16.91.02 68.62-52.39-16.65-.02-68.88z"/></g></g></g></svg>