<svg id="Layer_1" data-name="Layer 1" xmlns="http://www.w3.org/2000/svg" viewBox="0 0 1059.28 322.2"><defs><style>.cls-1{fill:#545c64}</style></defs><g id="Logos"><g id="Expanded"><g id="logo"><path id="shape4" class="cls-1" d="M382.69 310a7.48 7.48 0 00-4.4-3.74l-119.9-38.36a7.4 7.4 0 00-2.32-.37 7.62 7.62 0 00-5.35 2.22l-.87.87a7.44 7.44 0 00-1.84 3 7.58 7.58 0 004.87 9.51l119.9 38.35a7.31 7.31 0 002.32.37 7.58 7.58 0 005.34-2.22l.87-.88a7.37 7.37 0 001.84-3 7.49 7.49 0 00-.46-5.75z"/><path id="shape_3" data-name="shape 3" class="cls-1" d="M269 93.44l41.08 167.46c1.12 4.55 4.9 5.29 10.15 6.31l.38.08 30.86 2.15a5.11 5.11 0 003.6-1.7l.87-.88a10 10 0 002.6-8.85L317.43 90.56c-.58-2.38-1.52-3.78-3.15-4.71s-3.63-1.34-7.38-1.68L276.23 82a6.13 6.13 0 00-4.51 1.77l-.87.86c-1.95 1.99-2.71 5.48-1.85 8.81z"/><path id="shape2" class="cls-1" d="M255.46 223.54l-.05-168.33a14.2 14.2 0 00-9.95-13.54l-73.82-22.92a14.05 14.05 0 00-4.27-.66 14.41 14.41 0 00-8.37 2.73 14.69 14.69 0 00-1.64 1.41l-.87.87a14.26 14.26 0 00-4.16 10l.05 162.74c0 10.49-3.24 20.21-8.68 26a18.3 18.3 0 01-1.86 1.57 15.44 15.44 0 01-9.24 3 22.22 22.22 0 01-6.91-1.21L10.74 188a7.3 7.3 0 00-2.31-.37 7.62 7.62 0 00-5.35 2.22l-.87.87a7.55 7.55 0 00-1.38 8.77 7.56 7.56 0 004.4 3.75l114.91 37.17a37.39 37.39 0 0011.63 2 30.61 30.61 0 0018-5.85 34.09 34.09 0 004-3.45l.88-.87a44.86 44.86 0 0010-16.19 61.83 61.83 0 003.61-21V172l71.18 22.71v29.66a99 99 0 01-1.57 19.42c-1 4.81-2.5 8.37-4.46 10.6a9.74 9.74 0 01-1 .77 9.19 9.19 0 01-5.11 1.27c-3.66 0-8.45-1.26-14.23-3.76a7.54 7.54 0 00-8.33 1.59l-.88.87a7.47 7.47 0 00-1.59 2.34 7.57 7.57 0 003.92 9.93c7.68 3.32 14.52 5 20.33 5a23.4 23.4 0 0013.3-3.75 23.75 23.75 0 003.74-3.06l.88-.88c4.29-4.3 7.24-10.35 9-18.51a107.42 107.42 0 002.02-22.66zM168.25 34.65l71.19 22.11v39.57l-71.17-22.72zm0 56l71.19 22.7v64.44L168.29 155z"/><path id="shape1" class="cls-1" d="M56.27 175.79a11.93 11.93 0 008.34 11.4l59.53 18.92a11.88 11.88 0 003.62.56 12 12 0 007.07-2.3 10.7 10.7 0 001.37-1.19l.87-.87a12.06 12.06 0 003.51-8.46V31.2a11.92 11.92 0 00-8.34-11.39L72.67.87A12 12 0 0062 2.63a12.94 12.94 0 00-1.4 1.19l-.87.87a12 12 0 00-3.52 8.45zM72.19 17.72l52.39 16.65v69.26l-52.37-16.9zm0 86l52.38 16.91v68.62l-52.33-16.63z"/></g><g id="kenmei"><path id="i" class="cls-1" d="M1037.72 118.06a11.07 11.07 0 01-10.87-10.87v-3a11.09 11.09 0 0110.87-10.88h10.69a11.1 11.1 0 0110.87 10.88v3a11.09 11.09 0 01-10.87 10.87zm0 118.26a11.07 11.07 0 01-10.87-10.87V148a11.07 11.07 0 0110.87-10.87h10.69a11.09 11.09 0 0110.87 10.87v77.44a11.09 11.09 0 01-10.87 10.87z"/><path id="e" class="cls-1" d="M961.81 238.23q-25.95 0-40-13.16t-14-38.34q0-25 12.49-38.25t36.15-13.25q45.39 0 46.16 49.59a10 10 0 01-3.53 7.73 11.88 11.88 0 01-8.11 3.14h-50.91c-1.27 0-1.78.58-1.52 1.72q1.51 10.49 8.11 15t19.74 4.49a76.75 76.75 0 0018.5-2.48 8 8 0 017.15 1.52 7.88 7.88 0 013.15 6.49v.38a14.07 14.07 0 01-3 8.68 11.56 11.56 0 01-7.53 4.67 122.57 122.57 0 01-22.85 2.07zM957 156q-8.58 0-13 4.48t-5.53 15.36c0 1 .44 1.52 1.33 1.52h32.24a1.52 1.52 0 001.72-1.71Q973.07 156 957 156z"/><path id="m" class="cls-1" d="M763.05 236.32a11.09 11.09 0 01-10.87-10.87V148a11.09 11.09 0 0110.87-10.87h7.06a10.51 10.51 0 017.73 3.14 12 12 0 013.53 7.73l.19 1.71a.17.17 0 00.19.19c.25 0 .38-.06.38-.19q11.25-14.49 25.75-14.49 8.77 0 13.92 3.15t9.54 11.15a.33.33 0 00.38.38l.38-.38q13.17-14.29 27.47-14.3 16.21 0 23.46 8.68t7.25 29.47v52.07a11.07 11.07 0 01-10.87 10.87H871a11.09 11.09 0 01-10.88-10.87v-50.16q0-10.29-2.29-13.63t-8.58-3.34a12.78 12.78 0 00-8.49 3.62q-4.1 3.63-4.1 7.06v56.46a11.07 11.07 0 01-10.87 10.87h-8.39a11.09 11.09 0 01-10.88-10.87v-50.17q0-10.29-2.19-13.63t-8.49-3.34a13.1 13.1 0 00-8.58 3.62q-4.2 3.63-4.2 7.06v56.46a11.07 11.07 0 01-10.87 10.87z"/><path id="n" class="cls-1" d="M645.94 236.32a10.1 10.1 0 01-7.53-3.24 10.58 10.58 0 01-3.15-7.63V148a10.58 10.58 0 013.15-7.63 10.1 10.1 0 017.53-3.24h7.82a10.51 10.51 0 017.73 3.14 11.22 11.22 0 013.33 7.73l.19 1.52c0 .13.07.19.2.19l.38-.38q12.39-14.11 29.75-14.11t25 9.82q7.62 9.82 7.63 33.48v46.92a10.58 10.58 0 01-3.15 7.63 10.12 10.12 0 01-7.53 3.24h-8.39a11.09 11.09 0 01-10.9-10.86v-46q0-11.44-3-15.74t-11.06-4.29q-6.67 0-12.3 5.44T666 176.62v48.83a10.58 10.58 0 01-3.15 7.63 10.14 10.14 0 01-7.53 3.24z"/><path id="e-2" data-name="e" class="cls-1" d="M575 238.23q-25.95 0-40-13.16t-14-38.34q0-25 12.49-38.25t36.14-13.25q45.4 0 46.16 49.59a10 10 0 01-3.52 7.73 11.88 11.88 0 01-8.11 3.14h-50.92c-1.27 0-1.78.58-1.52 1.72q1.51 10.49 8.1 15t19.74 4.49a76.62 76.62 0 0018.5-2.48 8 8 0 017.16 1.52 7.88 7.88 0 013.15 6.49v.38a14.07 14.07 0 01-3 8.68 11.55 11.55 0 01-7.54 4.67 122.39 122.39 0 01-22.83 2.07zM570.22 156q-8.6 0-13 4.48t-5.53 15.36c0 1 .44 1.52 1.33 1.52h32.24a1.51 1.51 0 001.71-1.71Q586.24 156 570.22 156z"/><path id="k" class="cls-1" d="M434.79 236.32a10.14 10.14 0 01-7.54-3.24 10.61 10.61 0 01-3.14-7.63V104.14a10.61 10.61 0 013.14-7.63 10.15 10.15 0 017.54-3.25h9.35a10.15 10.15 0 017.53 3.25 10.58 10.58 0 013.15 7.63v70.38a.17.17 0 00.19.19l.38-.19 23.84-29a21.67 21.67 0 0117.55-8.39h13.73A4.72 4.72 0 01515 140a4.53 4.53 0 01-.67 5.34l-32.62 38.34a1.84 1.84 0 000 2.48l33 41.77a5 5 0 01.48 5.53 4.87 4.87 0 01-4.68 2.86h-13.73a21 21 0 01-17.36-8.58l-24-31.28a.55.55 0 00-.38-.19.17.17 0 00-.19.19v29a10.58 10.58 0 01-3.15 7.63 10.14 10.14 0 01-7.53 3.24z"/></g></g></g></svg>