<?xml version="1.0" encoding="utf-8"?>
<!-- Generator: Adobe Illustrator 23.0.3, SVG Export Plug-In . SVG Version: 6.00 Build 0)  -->
<svg version="1.1" id="Layer_1" xmlns="http://www.w3.org/2000/svg" xmlns:xlink="http://www.w3.org/1999/xlink" x="0px" y="0px"
	 viewBox="0 0 1156.96 322.2" style="enable-background:new 0 0 1156.96 322.2;" xml:space="preserve">
<style type="text/css">
	.st0{fill:#FFFFFF;}
	.st1{fill:none;stroke:#FFFFFF;stroke-width:3;stroke-miterlimit:10;}
	.st2{fill:url(#SVGID_1_);}
	.st3{fill:#FFD04B;}
	.st4{fill:#545C64;}
</style>
<g id="Colour_references">
	<g id="White">
	</g>
	<g id="Alternate_Gradient">
	</g>
	<g id="Kenmei_Yellow">
	</g>
	<g id="Kenmei_Grey">
	</g>
</g>
<g id="Logos">
	<g id="Expanded">
		<g id="kenmei">
			<path id="i" class="st4" d="M983.86,69.34c-2.67,0-4.99-0.98-6.96-2.96c-1.97-1.97-2.96-4.29-2.96-6.96v-2.78
				c0-2.67,0.98-4.99,2.96-6.96c1.97-1.97,4.29-2.96,6.96-2.96h9.74c2.67,0,4.99,0.99,6.96,2.96c1.97,1.97,2.96,4.29,2.96,6.96v2.78
				c0,2.67-0.99,4.99-2.96,6.96c-1.97,1.97-4.29,2.96-6.96,2.96H983.86z M983.86,177.22c-2.67,0-4.99-0.98-6.96-2.96
				c-1.97-1.97-2.96-4.29-2.96-6.96V96.66c0-2.67,0.98-4.99,2.96-6.96c1.97-1.97,4.29-2.96,6.96-2.96h9.74
				c2.67,0,4.99,0.99,6.96,2.96c1.97,1.97,2.96,4.29,2.96,6.96v70.64c0,2.67-0.99,4.99-2.96,6.96c-1.97,1.97-4.29,2.96-6.96,2.96
				H983.86z"/>
			<path id="e_2_" class="st4" d="M914.61,178.97c-15.78,0-27.93-4-36.45-12.01c-8.53-8-12.79-19.66-12.79-34.97
				c0-15.2,3.8-26.82,11.4-34.89c7.6-8.06,18.59-12.09,32.97-12.09c27.61,0,41.64,15.08,42.11,45.24c0,2.78-1.07,5.13-3.22,7.05
				c-2.15,1.91-4.61,2.87-7.4,2.87h-46.46c-1.16,0-1.63,0.52-1.39,1.57c0.93,6.38,3.39,10.93,7.4,13.66c4,2.73,10,4.09,18.01,4.09
				c5.22,0,10.84-0.75,16.88-2.26c2.44-0.58,4.61-0.11,6.52,1.39c1.91,1.51,2.87,3.48,2.87,5.92v0.35c0,2.9-0.9,5.54-2.7,7.92
				c-1.8,2.38-4.09,3.8-6.87,4.26C928.76,178.33,921.8,178.97,914.61,178.97z M910.26,103.97c-5.22,0-9.17,1.36-11.83,4.09
				c-2.67,2.73-4.35,7.4-5.05,14.01c0,0.93,0.41,1.39,1.22,1.39h29.41c1.04,0,1.57-0.52,1.57-1.57
				C925.11,109.95,920.01,103.97,910.26,103.97z"/>
			<path id="m_1_" class="st4" d="M733.3,177.22c-2.67,0-4.99-0.98-6.96-2.96c-1.97-1.97-2.96-4.29-2.96-6.96V96.66
				c0-2.67,0.98-4.99,2.96-6.96c1.97-1.97,4.29-2.96,6.96-2.96h6.44c2.78,0,5.13,0.96,7.05,2.87s2.99,4.26,3.22,7.05l0.17,1.57
				c0,0.12,0.06,0.17,0.17,0.17c0.23,0,0.35-0.06,0.35-0.17c6.84-8.81,14.67-13.22,23.49-13.22c5.33,0,9.57,0.96,12.7,2.87
				c3.13,1.91,6.03,5.31,8.7,10.18c0,0.23,0.11,0.35,0.35,0.35l0.35-0.35c8-8.7,16.36-13.05,25.06-13.05
				c9.86,0,16.99,2.64,21.4,7.92c4.41,5.28,6.61,14.24,6.61,26.88v47.5c0,2.67-0.99,4.99-2.96,6.96c-1.97,1.97-4.29,2.96-6.96,2.96
				h-7.66c-2.67,0-4.99-0.98-6.96-2.96c-1.97-1.97-2.96-4.29-2.96-6.96v-45.76c0-6.26-0.7-10.41-2.09-12.44
				c-1.39-2.03-4-3.04-7.83-3.04c-2.67,0-5.25,1.1-7.74,3.31c-2.5,2.21-3.74,4.35-3.74,6.44v51.5c0,2.67-0.99,4.99-2.96,6.96
				c-1.97,1.97-4.29,2.96-6.96,2.96h-7.66c-2.67,0-4.99-0.98-6.96-2.96c-1.97-1.97-2.96-4.29-2.96-6.96v-45.76
				c0-6.26-0.67-10.41-2-12.44c-1.33-2.03-3.92-3.04-7.74-3.04c-2.67,0-5.28,1.1-7.83,3.31c-2.55,2.21-3.83,4.35-3.83,6.44v51.5
				c0,2.67-0.99,4.99-2.96,6.96c-1.97,1.97-4.29,2.96-6.96,2.96H733.3z"/>
			<path id="n_1_" class="st4" d="M626.47,177.22c-2.67,0-4.96-0.98-6.87-2.96c-1.91-1.97-2.87-4.29-2.87-6.96V96.66
				c0-2.67,0.96-4.99,2.87-6.96c1.91-1.97,4.2-2.96,6.87-2.96h7.13c2.78,0,5.13,0.96,7.05,2.87s2.93,4.26,3.04,7.05l0.17,1.39
				c0,0.12,0.06,0.17,0.17,0.17l0.35-0.35c7.54-8.58,16.59-12.88,27.14-12.88c10.55,0,18.15,2.99,22.79,8.96
				c4.64,5.98,6.96,16.15,6.96,30.54v42.8c0,2.67-0.96,4.99-2.87,6.96c-1.91,1.97-4.21,2.96-6.87,2.96h-7.66
				c-2.67,0-4.99-0.98-6.96-2.96c-1.97-1.97-2.96-4.29-2.96-6.96v-41.93c0-6.96-0.93-11.75-2.78-14.36
				c-1.86-2.61-5.22-3.92-10.09-3.92c-4.06,0-7.8,1.65-11.22,4.96c-3.42,3.31-5.13,6.87-5.13,10.7v44.54c0,2.67-0.96,4.99-2.87,6.96
				c-1.91,1.97-4.21,2.96-6.87,2.96H626.47z"/>
			<path id="e_1_" class="st4" d="M561.74,178.97c-15.78,0-27.93-4-36.45-12.01c-8.53-8-12.79-19.66-12.79-34.97
				c0-15.2,3.8-26.82,11.4-34.89c7.6-8.06,18.59-12.09,32.97-12.09c27.61,0,41.64,15.08,42.11,45.24c0,2.78-1.07,5.13-3.22,7.05
				c-2.15,1.91-4.61,2.87-7.39,2.87h-46.46c-1.16,0-1.63,0.52-1.39,1.57c0.93,6.38,3.39,10.93,7.39,13.66c4,2.73,10,4.09,18.01,4.09
				c5.22,0,10.85-0.75,16.88-2.26c2.44-0.58,4.61-0.11,6.53,1.39c1.91,1.51,2.87,3.48,2.87,5.92v0.35c0,2.9-0.9,5.54-2.7,7.92
				c-1.8,2.38-4.09,3.8-6.87,4.26C575.89,178.33,568.93,178.97,561.74,178.97z M557.39,103.97c-5.22,0-9.17,1.36-11.83,4.09
				c-2.67,2.73-4.35,7.4-5.05,14.01c0,0.93,0.4,1.39,1.22,1.39h29.41c1.04,0,1.57-0.52,1.57-1.57
				C572.24,109.95,567.14,103.97,557.39,103.97z"/>
			<path id="k_1_" class="st4" d="M433.85,177.22c-2.67,0-4.96-0.98-6.87-2.96c-1.91-1.97-2.87-4.29-2.87-6.96V56.64
				c0-2.67,0.96-4.99,2.87-6.96c1.91-1.97,4.2-2.96,6.87-2.96h8.53c2.67,0,4.96,0.99,6.87,2.96c1.91,1.97,2.87,4.29,2.87,6.96v64.21
				c0,0.12,0.06,0.17,0.17,0.17l0.35-0.17l21.75-26.45c4.18-5.1,9.51-7.66,16.01-7.66h12.53c1.85,0,3.22,0.87,4.09,2.61
				s0.67,3.37-0.61,4.87l-29.75,34.97c-0.58,0.7-0.58,1.45,0,2.26l30.1,38.11c1.16,1.63,1.3,3.31,0.43,5.05
				c-0.87,1.74-2.29,2.61-4.26,2.61H490.4c-6.5,0-11.77-2.61-15.83-7.83l-21.92-28.54c-0.12-0.11-0.23-0.17-0.35-0.17
				c-0.12,0-0.17,0.06-0.17,0.17v26.45c0,2.67-0.96,4.99-2.87,6.96c-1.91,1.97-4.21,2.96-6.87,2.96H433.85z"/>
		</g>
		<g id="manga_tracker">
			<path id="r2" class="st4" d="M1121.05,282.42c-0.53,0.53-1.22,0.8-2.05,0.8c-0.84,0-1.52-0.27-2.05-0.8
				c-0.53-0.53-0.8-1.21-0.8-2.05v-53.69c0-0.76,0.26-1.41,0.8-1.94c0.53-0.53,1.18-0.8,1.94-0.8c0.76,0,1.43,0.27,2,0.8
				c0.57,0.53,0.86,1.18,0.86,1.94v12.08c0,0.08,0.04,0.11,0.11,0.11c0.08,0,0.11-0.04,0.11-0.11c2.2-4.56,5.6-8.15,10.2-10.77
				c4.6-2.62,9.82-3.97,15.67-4.05c0.68,0,1.27,0.25,1.77,0.74c0.49,0.5,0.74,1.08,0.74,1.77c0,0.68-0.23,1.25-0.68,1.71
				c-0.46,0.46-1.03,0.68-1.71,0.68c-7.68,0.08-13.95,2.51-18.81,7.3c-4.87,4.79-7.3,11.1-7.3,18.92v25.31
				C1121.85,281.2,1121.58,281.88,1121.05,282.42z"/>
			<path id="e" class="st4" d="M1080.69,284.35c-9.12,0-16.04-2.58-20.75-7.75c-4.71-5.17-7.07-12.84-7.07-23.03
				c0-11.02,2.39-18.9,7.18-23.66c4.79-4.75,10.94-7.13,18.47-7.13c14.52,0,22.27,8.51,23.26,25.54c0.08,1.75-0.51,3.25-1.77,4.5
				s-2.79,1.88-4.62,1.88h-36.02c-0.61,0-0.91,0.34-0.91,1.03c0.46,16.11,7.98,24.17,22.57,24.17c5.09,0,10.11-0.91,15.05-2.74
				c0.53-0.23,1.04-0.17,1.54,0.17c0.49,0.34,0.74,0.82,0.74,1.42c0,1.6-0.8,2.66-2.39,3.19
				C1090.73,283.56,1085.63,284.35,1080.69,284.35z M1078.53,227.24c-12.31,0-18.96,7.3-19.95,21.89c0,0.76,0.34,1.14,1.03,1.14
				h35.8c0.68,0,1.03-0.38,1.03-1.14C1095.89,234.54,1089.93,227.24,1078.53,227.24z"/>
			<path id="k" class="st4" d="M1008.13,282.42c-0.57,0.53-1.24,0.8-2,0.8c-0.76,0-1.41-0.27-1.94-0.8c-0.53-0.53-0.8-1.18-0.8-1.94
				v-80.03c0-0.76,0.27-1.41,0.8-1.94c0.53-0.53,1.18-0.8,1.94-0.8c0.76,0,1.42,0.27,2,0.8c0.57,0.53,0.85,1.18,0.85,1.94v50.05
				c0,0.08,0.04,0.11,0.11,0.11h0.11l29.64-24.4c1.9-1.52,4.07-2.28,6.5-2.28c0.61,0,1.01,0.29,1.2,0.86
				c0.19,0.57,0.06,1.04-0.4,1.42l-31.35,25.65c-0.38,0.38-0.38,0.8,0,1.25l31.92,27.7c0.38,0.38,0.46,0.87,0.23,1.48
				c-0.23,0.61-0.61,0.91-1.14,0.91c-2.36,0-4.45-0.8-6.27-2.39l-30.32-26.56h-0.11c-0.08,0-0.11,0.04-0.11,0.11v26.11
				C1008.99,281.24,1008.7,281.88,1008.13,282.42z"/>
			<path id="c" class="st4" d="M970,284.35c-8.82,0-15.58-2.58-20.29-7.75c-4.71-5.17-7.07-12.84-7.07-23.03
				c0-10.03,2.28-17.67,6.84-22.91c4.56-5.24,11.02-7.87,19.38-7.87c4.48,0,9.01,0.57,13.57,1.71c0.76,0.15,1.39,0.55,1.88,1.2
				c0.49,0.65,0.74,1.35,0.74,2.11c0,0.61-0.27,1.08-0.8,1.43c-0.53,0.34-1.1,0.44-1.71,0.28c-4.49-1.37-8.97-2.05-13.45-2.05
				c-13.83,0-20.75,8.7-20.75,26.11c0,17.4,7.3,26.11,21.89,26.11c4.56,0,8.89-0.72,13-2.17c0.53-0.23,1.06-0.15,1.6,0.23
				c0.53,0.38,0.8,0.87,0.8,1.48c0,1.67-0.84,2.78-2.51,3.31C978.93,283.75,974.56,284.35,970,284.35z"/>
			<path id="a3" class="st4" d="M901.49,284.35c-5.24,0-9.42-1.58-12.54-4.73c-3.12-3.15-4.67-7.39-4.67-12.71
				c0-2.81,0.51-5.38,1.54-7.7c1.03-2.32,2.7-4.5,5.02-6.55c2.32-2.05,5.66-3.65,10.03-4.79c4.37-1.14,9.59-1.71,15.67-1.71h6.38
				c0.68,0,1.03-0.34,1.03-1.03v-3.31c0-5.24-1.16-8.93-3.48-11.06c-2.32-2.13-6.4-3.19-12.25-3.19c-6.23,0-12.39,1.07-18.47,3.19
				c-0.61,0.23-1.18,0.17-1.71-0.17c-0.53-0.34-0.8-0.82-0.8-1.42c0-1.75,0.83-2.89,2.51-3.42c6.08-1.98,12.24-2.96,18.47-2.96
				c7.83,0,13.32,1.5,16.47,4.5c3.15,3,4.73,8.23,4.73,15.67v37.62c0,0.76-0.25,1.39-0.74,1.88c-0.5,0.5-1.12,0.74-1.88,0.74
				c-0.76,0-1.39-0.25-1.88-0.74c-0.5-0.49-0.74-1.12-0.74-1.88v-8.89c0-0.08-0.04-0.11-0.11-0.11c-0.15,0-0.23,0.04-0.23,0.11
				c-2.13,3.95-5.13,7.05-9.01,9.29C910.95,283.23,906.5,284.35,901.49,284.35z M916.54,250.38c-17.86,0-26.79,5.36-26.79,16.07
				c0,4.03,1.16,7.22,3.48,9.58c2.32,2.36,5.41,3.53,9.29,3.53c5.93,0,10.98-2.07,15.16-6.21c4.18-4.14,6.27-9.48,6.27-16.02v-5.93
				c0-0.68-0.34-1.03-1.03-1.03H916.54z"/>
			<path id="r1" class="st4" d="M845.74,282.42c-0.53,0.53-1.22,0.8-2.05,0.8c-0.84,0-1.52-0.27-2.05-0.8
				c-0.53-0.53-0.8-1.21-0.8-2.05v-53.69c0-0.76,0.26-1.41,0.8-1.94c0.53-0.53,1.18-0.8,1.94-0.8c0.76,0,1.43,0.27,2,0.8
				c0.57,0.53,0.86,1.18,0.86,1.94v12.08c0,0.08,0.04,0.11,0.11,0.11c0.08,0,0.11-0.04,0.11-0.11c2.2-4.56,5.6-8.15,10.2-10.77
				c4.6-2.62,9.82-3.97,15.67-4.05c0.68,0,1.27,0.25,1.77,0.74c0.49,0.5,0.74,1.08,0.74,1.77c0,0.68-0.23,1.25-0.68,1.71
				c-0.46,0.46-1.03,0.68-1.71,0.68c-7.68,0.08-13.95,2.51-18.81,7.3c-4.87,4.79-7.3,11.1-7.3,18.92v25.31
				C846.54,281.2,846.27,281.88,845.74,282.42z"/>
			<path id="t" class="st4" d="M783.96,230.77c-0.61,0-1.14-0.23-1.6-0.68s-0.68-0.99-0.68-1.6c0-0.61,0.23-1.14,0.68-1.6
				s0.99-0.68,1.6-0.68h10.26c0.61,0,0.91-0.3,0.91-0.91v-18.01c0-0.76,0.29-1.41,0.86-1.94c0.57-0.53,1.23-0.8,2-0.8
				c0.76,0,1.41,0.27,1.94,0.8c0.53,0.53,0.8,1.18,0.8,1.94v18.01c0,0.61,0.3,0.91,0.91,0.91h19.15c0.61,0,1.14,0.23,1.6,0.68
				s0.68,0.99,0.68,1.6c0,0.61-0.23,1.14-0.68,1.6s-0.99,0.68-1.6,0.68h-19.15c-0.61,0-0.91,0.34-0.91,1.03v33.97
				c0,5.78,0.82,9.56,2.45,11.34c1.63,1.79,4.73,2.68,9.29,2.68c2.43,0,4.79-0.34,7.07-1.03c0.53-0.15,1.04-0.06,1.54,0.29
				c0.49,0.34,0.74,0.82,0.74,1.42c0,1.6-0.8,2.58-2.39,2.96c-2.58,0.61-5.17,0.91-7.75,0.91c-6.31,0-10.64-1.31-13-3.93
				c-2.36-2.62-3.53-7.39-3.53-14.31V231.8c0-0.68-0.3-1.03-0.91-1.03H783.96z"/>
			<path id="a2" class="st4" d="M709.4,284.35c-5.24,0-9.42-1.58-12.54-4.73c-3.12-3.15-4.67-7.39-4.67-12.71
				c0-2.81,0.51-5.38,1.54-7.7c1.03-2.32,2.7-4.5,5.02-6.55c2.32-2.05,5.66-3.65,10.03-4.79c4.37-1.14,9.59-1.71,15.68-1.71h6.38
				c0.68,0,1.03-0.34,1.03-1.03v-3.31c0-5.24-1.16-8.93-3.48-11.06c-2.32-2.13-6.4-3.19-12.25-3.19c-6.23,0-12.39,1.07-18.47,3.19
				c-0.61,0.23-1.18,0.17-1.71-0.17c-0.53-0.34-0.8-0.82-0.8-1.42c0-1.75,0.84-2.89,2.51-3.42c6.08-1.98,12.24-2.96,18.47-2.96
				c7.83,0,13.32,1.5,16.47,4.5c3.15,3,4.73,8.23,4.73,15.67v37.62c0,0.76-0.25,1.39-0.74,1.88c-0.5,0.5-1.12,0.74-1.88,0.74
				c-0.76,0-1.39-0.25-1.88-0.74c-0.5-0.49-0.74-1.12-0.74-1.88v-8.89c0-0.08-0.04-0.11-0.11-0.11c-0.15,0-0.23,0.04-0.23,0.11
				c-2.13,3.95-5.13,7.05-9.01,9.29C718.87,283.23,714.42,284.35,709.4,284.35z M724.45,250.38c-17.86,0-26.79,5.36-26.79,16.07
				c0,4.03,1.16,7.22,3.48,9.58c2.32,2.36,5.42,3.53,9.29,3.53c5.93,0,10.98-2.07,15.16-6.21c4.18-4.14,6.27-9.48,6.27-16.02v-5.93
				c0-0.68-0.34-1.03-1.03-1.03H724.45z"/>
			<path id="g" class="st4" d="M651.72,283.21c-7.07,0-12.69-2.64-16.87-7.92c-4.18-5.28-6.27-12.63-6.27-22.06
				c0-10.79,2.18-18.56,6.55-23.31c4.37-4.75,9.9-7.13,16.59-7.13c8.74,0,15.35,3.46,19.84,10.37c0,0.15,0.08,0.23,0.23,0.23
				c0.07,0,0.11-0.04,0.11-0.11v-6.73c0-0.76,0.27-1.39,0.8-1.88c0.53-0.49,1.18-0.74,1.94-0.74c0.76,0,1.39,0.25,1.88,0.74
				c0.49,0.5,0.74,1.12,0.74,1.88v53.81c0,10.11-2.11,17.48-6.33,22.12c-4.22,4.63-10.85,6.95-19.89,6.95
				c-5.09,0-9.73-0.61-13.91-1.82c-1.67-0.53-2.51-1.64-2.51-3.31c0-0.61,0.26-1.08,0.8-1.42c0.53-0.34,1.1-0.4,1.71-0.17
				c4.25,1.44,8.89,2.17,13.91,2.17c7.3,0,12.56-1.88,15.79-5.64c3.23-3.76,4.84-9.97,4.84-18.64v-7.41c0-0.07-0.04-0.11-0.11-0.11
				c-0.15,0-0.23,0.04-0.23,0.11C666.92,279.87,660.38,283.21,651.72,283.21z M652.86,227.35c-12.54,0-18.81,8.63-18.81,25.88
				c0,8.13,1.67,14.4,5.02,18.81c3.34,4.41,7.94,6.61,13.79,6.61c5.02,0,9.41-1.86,13.17-5.59c3.76-3.72,5.64-8.21,5.64-13.45
				v-12.88c0-5.24-1.9-9.78-5.7-13.62C662.17,229.27,657.8,227.35,652.86,227.35z"/>
			<path id="n" class="st4" d="M573.86,282.42c-0.53,0.53-1.18,0.8-1.94,0.8c-0.76,0-1.41-0.27-1.94-0.8
				c-0.53-0.53-0.8-1.18-0.8-1.94v-53.92c0-0.76,0.25-1.39,0.74-1.88c0.49-0.49,1.12-0.74,1.88-0.74c0.76,0,1.39,0.25,1.88,0.74
				c0.49,0.5,0.74,1.12,0.74,1.88l0.11,7.75c0,0.08,0.04,0.11,0.11,0.11l0.23-0.23c5.4-7.6,12.16-11.4,20.29-11.4
				c6.92,0,11.91,1.9,14.99,5.7c3.08,3.8,4.62,10.26,4.62,19.38v32.6c0,0.76-0.27,1.41-0.8,1.94c-0.53,0.53-1.18,0.8-1.94,0.8
				c-0.76,0-1.39-0.27-1.88-0.8c-0.5-0.53-0.74-1.18-0.74-1.94v-32.03c0-8.21-1.22-13.77-3.65-16.7c-2.43-2.92-6.35-4.39-11.74-4.39
				c-4.33,0-8.65,2.09-12.94,6.27c-4.29,4.18-6.44,8.36-6.44,12.54v34.31C574.66,281.24,574.39,281.88,573.86,282.42z"/>
			<path id="a1" class="st4" d="M524.04,284.35c-5.24,0-9.42-1.58-12.54-4.73c-3.12-3.15-4.67-7.39-4.67-12.71
				c0-2.81,0.51-5.38,1.54-7.7c1.03-2.32,2.7-4.5,5.02-6.55c2.32-2.05,5.66-3.65,10.03-4.79c4.37-1.14,9.59-1.71,15.68-1.71h6.38
				c0.68,0,1.03-0.34,1.03-1.03v-3.31c0-5.24-1.16-8.93-3.48-11.06c-2.32-2.13-6.4-3.19-12.25-3.19c-6.23,0-12.39,1.07-18.47,3.19
				c-0.61,0.23-1.18,0.17-1.71-0.17c-0.53-0.34-0.8-0.82-0.8-1.42c0-1.75,0.84-2.89,2.51-3.42c6.08-1.98,12.24-2.96,18.47-2.96
				c7.83,0,13.32,1.5,16.47,4.5c3.15,3,4.73,8.23,4.73,15.67v37.62c0,0.76-0.25,1.39-0.74,1.88c-0.5,0.5-1.12,0.74-1.88,0.74
				c-0.76,0-1.39-0.25-1.88-0.74c-0.5-0.49-0.74-1.12-0.74-1.88v-8.89c0-0.08-0.04-0.11-0.11-0.11c-0.15,0-0.23,0.04-0.23,0.11
				c-2.13,3.95-5.13,7.05-9.01,9.29C533.5,283.23,529.06,284.35,524.04,284.35z M539.09,250.38c-17.86,0-26.79,5.36-26.79,16.07
				c0,4.03,1.16,7.22,3.48,9.58c2.32,2.36,5.42,3.53,9.29,3.53c5.93,0,10.98-2.07,15.16-6.21c4.18-4.14,6.27-9.48,6.27-16.02v-5.93
				c0-0.68-0.34-1.03-1.03-1.03H539.09z"/>
			<path id="m" class="st4" d="M425.32,282.42c-0.53,0.53-1.18,0.8-1.94,0.8c-0.76,0-1.41-0.27-1.94-0.8
				c-0.53-0.53-0.8-1.18-0.8-1.94v-53.92c0-0.76,0.25-1.39,0.74-1.88c0.49-0.49,1.12-0.74,1.88-0.74c0.76,0,1.41,0.25,1.94,0.74
				c0.53,0.5,0.8,1.12,0.8,1.88v6.5c0,0.08,0.04,0.11,0.11,0.11c0.15,0,0.23-0.04,0.23-0.11c4.25-6.84,9.61-10.26,16.07-10.26
				c7.83,0,12.92,3.95,15.28,11.86c0,0.08,0.04,0.11,0.11,0.11c0.15,0,0.23-0.04,0.23-0.11c4.03-7.9,9.76-11.86,17.21-11.86
				c5.93,0,10.28,1.81,13.05,5.42c2.77,3.61,4.16,9.41,4.16,17.38v34.88c0,0.76-0.27,1.41-0.8,1.94c-0.53,0.53-1.18,0.8-1.94,0.8
				c-0.76,0-1.41-0.27-1.94-0.8c-0.53-0.53-0.8-1.18-0.8-1.94v-33.74c0-7.14-0.99-12.16-2.96-15.05c-1.98-2.89-5.28-4.33-9.92-4.33
				c-3.34,0-6.65,1.84-9.92,5.53c-3.27,3.69-4.9,7.62-4.9,11.8v35.8c0,0.76-0.27,1.41-0.8,1.94c-0.53,0.53-1.18,0.8-1.94,0.8
				c-0.76,0-1.41-0.27-1.94-0.8c-0.53-0.53-0.8-1.18-0.8-1.94v-33.74c0-7.22-1.01-12.25-3.02-15.1c-2.01-2.85-5.3-4.28-9.86-4.28
				c-3.34,0-6.65,1.84-9.92,5.53c-3.27,3.69-4.9,7.62-4.9,11.8v35.8C426.12,281.24,425.85,281.88,425.32,282.42z"/>
		</g>
		<g id="logo">
			<path id="shape4_1_" class="st4" d="M382.69,309.7c-0.92-1.79-2.48-3.12-4.4-3.74l-119.9-38.36c-0.76-0.24-1.54-0.37-2.32-0.37
				c-1.99,0-3.94,0.81-5.35,2.22l-0.87,0.87l0,0c-0.85,0.85-1.47,1.86-1.84,3c-1.27,3.96,0.91,8.23,4.87,9.51l119.9,38.35
				c0.75,0.25,1.53,0.37,2.32,0.37c2,0,3.93-0.82,5.34-2.22l0.01,0.01l0.87-0.87c0.85-0.85,1.47-1.86,1.84-3.01
				C383.77,313.54,383.61,311.49,382.69,309.7z"/>
			<path id="shape_3" class="st4" d="M268.96,93.12l41.12,167.46c1.12,4.55,4.91,5.29,10.15,6.32l0.38,0.07l30.86,2.16
				c1.25,0,2.49-0.59,3.61-1.7l0.01,0.01h0l0.87-0.87c2.22-2.22,3.31-5.94,2.6-8.85L317.43,90.24c-0.58-2.37-1.52-3.78-3.15-4.71
				c-1.49-0.85-3.63-1.34-7.38-1.68l-30.67-2.14c-1.83,0-3.34,0.59-4.51,1.76l-0.87,0.86c0,0,0,0-0.01,0.01l0.01,0
				C268.9,86.3,268.14,89.79,268.96,93.12z"/>
			<path id="shape2_1_" class="st4" d="M255.46,223.22l-0.05-168.33c0-6.21-4-11.64-9.95-13.54l-73.82-22.93
				c-1.38-0.44-2.82-0.66-4.27-0.66c-3,0-5.99,0.97-8.4,2.74c-0.58,0.43-1.14,0.9-1.64,1.41l-0.87,0.87c0,0,0,0-0.01,0.01l0.01,0.01
				c-2.65,2.65-4.17,6.29-4.17,10.04l0.05,162.74c0,10.49-3.24,20.21-8.68,26c-0.67,0.63-1.27,1.14-1.86,1.56
				c-2.72,1.97-5.83,2.97-9.24,2.97c-2.16,0-4.48-0.41-6.91-1.21L10.74,187.72c-0.75-0.24-1.53-0.37-2.32-0.37
				c-1.99,0-3.94,0.81-5.34,2.21l-0.87,0.87l0,0c-0.85,0.85-1.47,1.87-1.84,3.01c-0.62,1.92-0.46,3.96,0.46,5.75
				c0.92,1.8,2.48,3.13,4.4,3.75l114.91,37.17c3.96,1.3,7.87,1.96,11.62,1.96c8.2,0,14.32-3.19,18.02-5.86
				c1.4-1.01,2.75-2.17,4.03-3.45l0,0l0.87-0.87c4.19-4.19,7.65-9.79,10-16.19c2.37-6.44,3.62-13.72,3.62-21.04l-0.01-22.97
				l71.19,22.71l0.01,29.66c0,7.87-0.53,14.4-1.57,19.42c-1,4.8-2.5,8.37-4.46,10.59c-0.37,0.33-0.69,0.58-0.99,0.77
				c-1.29,0.85-3,1.28-5.1,1.28c-3.67,0-8.45-1.27-14.23-3.76c-0.96-0.41-1.96-0.62-3-0.62c-1.99,0-3.93,0.8-5.34,2.21l-0.87,0.87
				l0.01,0.01c-0.68,0.68-1.21,1.46-1.59,2.33c-1.65,3.82,0.11,8.27,3.93,9.93c7.68,3.32,14.52,5.01,20.32,5.01
				c5.11,0,9.46-1.23,13.3-3.75c1.32-0.87,2.57-1.89,3.74-3.06l0.01,0.01l0.87-0.87c4.3-4.3,7.24-10.35,9-18.51
				C254.84,239.74,255.47,232.52,255.46,223.22z M168.25,34.33l71.19,22.11l0.01,39.57l-71.19-22.72L168.25,34.33z M168.27,90.3
				L239.46,113l0.02,64.43l-71.19-22.72L168.27,90.3z"/>
			<path id="shape1_1_" class="st4" d="M56.27,175.47c0,5.23,3.35,9.81,8.34,11.4l59.53,18.92c1.19,0.37,2.41,0.56,3.61,0.56
				c2.53,0,5.04-0.82,7.08-2.3c0.47-0.34,0.93-0.74,1.37-1.19l0.01,0.01c0,0,0.01-0.01,0.01-0.01l0.86-0.86
				c2.23-2.23,3.52-5.32,3.51-8.47l-0.05-162.64c0-5.23-3.35-9.81-8.34-11.4L72.67,0.55C71.51,0.19,70.29,0,69.07,0
				c-2.54,0-5.05,0.82-7.08,2.31C61.5,2.67,61.03,3.07,60.6,3.5l-0.87,0.87l0.01,0.01c-2.24,2.24-3.52,5.31-3.52,8.46L56.27,175.47z
				 M72.19,17.4l52.39,16.65l0.02,69.26L72.21,86.41L72.19,17.4z M72.22,103.42l52.39,16.91l0.02,68.62L72.24,172.3L72.22,103.42z"
				/>
		</g>
	</g>
	<g id="Symbol_Only">
	</g>
	<g id="Raw">
	</g>
	<g id="Illustrator_Comments">
	</g>
</g>
</svg>
