<svg version="1.1" id="Layer_1" xmlns="http://www.w3.org/2000/svg" x="0" y="0" viewBox="0 0 1156.96 322.2" xml:space="preserve"><style>.st4{fill:#545c64}</style><g id="Logos"><g id="Expanded"><g id="kenmei"><path id="i" class="st4" d="M983.86 69.34c-2.67 0-4.99-.98-6.96-2.96-1.97-1.97-2.96-4.29-2.96-6.96v-2.78c0-2.67.98-4.99 2.96-6.96 1.97-1.97 4.29-2.96 6.96-2.96h9.74c2.67 0 4.99.99 6.96 2.96 1.97 1.97 2.96 4.29 2.96 6.96v2.78c0 2.67-.99 4.99-2.96 6.96-1.97 1.97-4.29 2.96-6.96 2.96h-9.74zm0 107.88c-2.67 0-4.99-.98-6.96-2.96-1.97-1.97-2.96-4.29-2.96-6.96V96.66c0-2.67.98-4.99 2.96-6.96 1.97-1.97 4.29-2.96 6.96-2.96h9.74c2.67 0 4.99.99 6.96 2.96 1.97 1.97 2.96 4.29 2.96 6.96v70.64c0 2.67-.99 4.99-2.96 6.96-1.97 1.97-4.29 2.96-6.96 2.96h-9.74z"/><path id="e_2_" class="st4" d="M914.61 178.97c-15.78 0-27.93-4-36.45-12.01-8.53-8-12.79-19.66-12.79-34.97 0-15.2 3.8-26.82 11.4-34.89 7.6-8.06 18.59-12.09 32.97-12.09 27.61 0 41.64 15.08 42.11 45.24 0 2.78-1.07 5.13-3.22 7.05-2.15 1.91-4.61 2.87-7.4 2.87h-46.46c-1.16 0-1.63.52-1.39 1.57.93 6.38 3.39 10.93 7.4 13.66 4 2.73 10 4.09 18.01 4.09 5.22 0 10.84-.75 16.88-2.26 2.44-.58 4.61-.11 6.52 1.39 1.91 1.51 2.87 3.48 2.87 5.92v.35c0 2.9-.9 5.54-2.7 7.92-1.8 2.38-4.09 3.8-6.87 4.26-6.73 1.26-13.69 1.9-20.88 1.9zm-4.35-75c-5.22 0-9.17 1.36-11.83 4.09-2.67 2.73-4.35 7.4-5.05 14.01 0 .93.41 1.39 1.22 1.39h29.41c1.04 0 1.57-.52 1.57-1.57-.47-11.94-5.57-17.92-15.32-17.92z"/><path id="m_1_" class="st4" d="M733.3 177.22c-2.67 0-4.99-.98-6.96-2.96-1.97-1.97-2.96-4.29-2.96-6.96V96.66c0-2.67.98-4.99 2.96-6.96 1.97-1.97 4.29-2.96 6.96-2.96h6.44c2.78 0 5.13.96 7.05 2.87s2.99 4.26 3.22 7.05l.17 1.57c0 .12.06.17.17.17.23 0 .35-.06.35-.17 6.84-8.81 14.67-13.22 23.49-13.22 5.33 0 9.57.96 12.7 2.87 3.13 1.91 6.03 5.31 8.7 10.18 0 .23.11.35.35.35l.35-.35c8-8.7 16.36-13.05 25.06-13.05 9.86 0 16.99 2.64 21.4 7.92 4.41 5.28 6.61 14.24 6.61 26.88v47.5c0 2.67-.99 4.99-2.96 6.96-1.97 1.97-4.29 2.96-6.96 2.96h-7.66c-2.67 0-4.99-.98-6.96-2.96-1.97-1.97-2.96-4.29-2.96-6.96v-45.76c0-6.26-.7-10.41-2.09-12.44-1.39-2.03-4-3.04-7.83-3.04-2.67 0-5.25 1.1-7.74 3.31-2.5 2.21-3.74 4.35-3.74 6.44v51.5c0 2.67-.99 4.99-2.96 6.96-1.97 1.97-4.29 2.96-6.96 2.96h-7.66c-2.67 0-4.99-.98-6.96-2.96-1.97-1.97-2.96-4.29-2.96-6.96v-45.76c0-6.26-.67-10.41-2-12.44-1.33-2.03-3.92-3.04-7.74-3.04-2.67 0-5.28 1.1-7.83 3.31s-3.83 4.35-3.83 6.44v51.5c0 2.67-.99 4.99-2.96 6.96-1.97 1.97-4.29 2.96-6.96 2.96h-8.34z"/><path id="n_1_" class="st4" d="M626.47 177.22c-2.67 0-4.96-.98-6.87-2.96-1.91-1.97-2.87-4.29-2.87-6.96V96.66c0-2.67.96-4.99 2.87-6.96 1.91-1.97 4.2-2.96 6.87-2.96h7.13c2.78 0 5.13.96 7.05 2.87s2.93 4.26 3.04 7.05l.17 1.39c0 .12.06.17.17.17l.35-.35c7.54-8.58 16.59-12.88 27.14-12.88s18.15 2.99 22.79 8.96c4.64 5.98 6.96 16.15 6.96 30.54v42.8c0 2.67-.96 4.99-2.87 6.96-1.91 1.97-4.21 2.96-6.87 2.96h-7.66c-2.67 0-4.99-.98-6.96-2.96-1.97-1.97-2.96-4.29-2.96-6.96v-41.93c0-6.96-.93-11.75-2.78-14.36-1.86-2.61-5.22-3.92-10.09-3.92-4.06 0-7.8 1.65-11.22 4.96-3.42 3.31-5.13 6.87-5.13 10.7v44.54c0 2.67-.96 4.99-2.87 6.96-1.91 1.97-4.21 2.96-6.87 2.96h-8.52z"/><path id="e_1_" class="st4" d="M561.74 178.97c-15.78 0-27.93-4-36.45-12.01-8.53-8-12.79-19.66-12.79-34.97 0-15.2 3.8-26.82 11.4-34.89 7.6-8.06 18.59-12.09 32.97-12.09 27.61 0 41.64 15.08 42.11 45.24 0 2.78-1.07 5.13-3.22 7.05-2.15 1.91-4.61 2.87-7.39 2.87h-46.46c-1.16 0-1.63.52-1.39 1.57.93 6.38 3.39 10.93 7.39 13.66 4 2.73 10 4.09 18.01 4.09 5.22 0 10.85-.75 16.88-2.26 2.44-.58 4.61-.11 6.53 1.39 1.91 1.51 2.87 3.48 2.87 5.92v.35c0 2.9-.9 5.54-2.7 7.92-1.8 2.38-4.09 3.8-6.87 4.26-6.74 1.26-13.7 1.9-20.89 1.9zm-4.35-75c-5.22 0-9.17 1.36-11.83 4.09-2.67 2.73-4.35 7.4-5.05 14.01 0 .93.4 1.39 1.22 1.39h29.41c1.04 0 1.57-.52 1.57-1.57-.47-11.94-5.57-17.92-15.32-17.92z"/><path id="k_1_" class="st4" d="M433.85 177.22c-2.67 0-4.96-.98-6.87-2.96-1.91-1.97-2.87-4.29-2.87-6.96V56.64c0-2.67.96-4.99 2.87-6.96 1.91-1.97 4.2-2.96 6.87-2.96h8.53c2.67 0 4.96.99 6.87 2.96 1.91 1.97 2.87 4.29 2.87 6.96v64.21c0 .12.06.17.17.17l.35-.17 21.75-26.45c4.18-5.1 9.51-7.66 16.01-7.66h12.53c1.85 0 3.22.87 4.09 2.61s.67 3.37-.61 4.87l-29.75 34.97c-.58.7-.58 1.45 0 2.26l30.1 38.11c1.16 1.63 1.3 3.31.43 5.05-.87 1.74-2.29 2.61-4.26 2.61H490.4c-6.5 0-11.77-2.61-15.83-7.83l-21.92-28.54c-.12-.11-.23-.17-.35-.17-.12 0-.17.06-.17.17v26.45c0 2.67-.96 4.99-2.87 6.96-1.91 1.97-4.21 2.96-6.87 2.96h-8.54z"/></g><g id="manga_tracker"><path id="r2" class="st4" d="M1121.05 282.42c-.53.53-1.22.8-2.05.8-.84 0-1.52-.27-2.05-.8-.53-.53-.8-1.21-.8-2.05v-53.69c0-.76.26-1.41.8-1.94.53-.53 1.18-.8 1.94-.8s1.43.27 2 .8c.57.53.86 1.18.86 1.94v12.08c0 .08.04.11.11.11.08 0 .11-.04.11-.11 2.2-4.56 5.6-8.15 10.2-10.77 4.6-2.62 9.82-3.97 15.67-4.05.68 0 1.27.25 1.77.74.49.5.74 1.08.74 1.77 0 .68-.23 1.25-.68 1.71-.46.46-1.03.68-1.71.68-7.68.08-13.95 2.51-18.81 7.3-4.87 4.79-7.3 11.1-7.3 18.92v25.31c0 .83-.27 1.51-.8 2.05z"/><path id="e" class="st4" d="M1080.69 284.35c-9.12 0-16.04-2.58-20.75-7.75-4.71-5.17-7.07-12.84-7.07-23.03 0-11.02 2.39-18.9 7.18-23.66 4.79-4.75 10.94-7.13 18.47-7.13 14.52 0 22.27 8.51 23.26 25.54.08 1.75-.51 3.25-1.77 4.5s-2.79 1.88-4.62 1.88h-36.02c-.61 0-.91.34-.91 1.03.46 16.11 7.98 24.17 22.57 24.17 5.09 0 10.11-.91 15.05-2.74.53-.23 1.04-.17 1.54.17.49.34.74.82.74 1.42 0 1.6-.8 2.66-2.39 3.19-5.24 1.62-10.34 2.41-15.28 2.41zm-2.16-57.11c-12.31 0-18.96 7.3-19.95 21.89 0 .76.34 1.14 1.03 1.14h35.8c.68 0 1.03-.38 1.03-1.14-.55-14.59-6.51-21.89-17.91-21.89z"/><path id="k" class="st4" d="M1008.13 282.42c-.57.53-1.24.8-2 .8s-1.41-.27-1.94-.8a2.65 2.65 0 01-.8-1.94v-80.03c0-.76.27-1.41.8-1.94s1.18-.8 1.94-.8 1.42.27 2 .8c.57.53.85 1.18.85 1.94v50.05c0 .08.04.11.11.11h.11l29.64-24.4c1.9-1.52 4.07-2.28 6.5-2.28.61 0 1.01.29 1.2.86.19.57.06 1.04-.4 1.42l-31.35 25.65c-.38.38-.38.8 0 1.25l31.92 27.7c.38.38.46.87.23 1.48s-.61.91-1.14.91c-2.36 0-4.45-.8-6.27-2.39l-30.32-26.56h-.11c-.08 0-.11.04-.11.11v26.11c0 .77-.29 1.41-.86 1.95z"/><path id="c" class="st4" d="M970 284.35c-8.82 0-15.58-2.58-20.29-7.75-4.71-5.17-7.07-12.84-7.07-23.03 0-10.03 2.28-17.67 6.84-22.91 4.56-5.24 11.02-7.87 19.38-7.87 4.48 0 9.01.57 13.57 1.71.76.15 1.39.55 1.88 1.2.49.65.74 1.35.74 2.11 0 .61-.27 1.08-.8 1.43-.53.34-1.1.44-1.71.28-4.49-1.37-8.97-2.05-13.45-2.05-13.83 0-20.75 8.7-20.75 26.11 0 17.4 7.3 26.11 21.89 26.11 4.56 0 8.89-.72 13-2.17.53-.23 1.06-.15 1.6.23.53.38.8.87.8 1.48 0 1.67-.84 2.78-2.51 3.31-4.19 1.21-8.56 1.81-13.12 1.81z"/><path id="a3" class="st4" d="M901.49 284.35c-5.24 0-9.42-1.58-12.54-4.73-3.12-3.15-4.67-7.39-4.67-12.71 0-2.81.51-5.38 1.54-7.7 1.03-2.32 2.7-4.5 5.02-6.55 2.32-2.05 5.66-3.65 10.03-4.79 4.37-1.14 9.59-1.71 15.67-1.71h6.38c.68 0 1.03-.34 1.03-1.03v-3.31c0-5.24-1.16-8.93-3.48-11.06-2.32-2.13-6.4-3.19-12.25-3.19-6.23 0-12.39 1.07-18.47 3.19-.61.23-1.18.17-1.71-.17s-.8-.82-.8-1.42c0-1.75.83-2.89 2.51-3.42 6.08-1.98 12.24-2.96 18.47-2.96 7.83 0 13.32 1.5 16.47 4.5 3.15 3 4.73 8.23 4.73 15.67v37.62c0 .76-.25 1.39-.74 1.88-.5.5-1.12.74-1.88.74-.76 0-1.39-.25-1.88-.74-.5-.49-.74-1.12-.74-1.88v-8.89c0-.08-.04-.11-.11-.11-.15 0-.23.04-.23.11-2.13 3.95-5.13 7.05-9.01 9.29-3.88 2.25-8.33 3.37-13.34 3.37zm15.05-33.97c-17.86 0-26.79 5.36-26.79 16.07 0 4.03 1.16 7.22 3.48 9.58 2.32 2.36 5.41 3.53 9.29 3.53 5.93 0 10.98-2.07 15.16-6.21 4.18-4.14 6.27-9.48 6.27-16.02v-5.93c0-.68-.34-1.03-1.03-1.03h-6.38z"/><path id="r1" class="st4" d="M845.74 282.42c-.53.53-1.22.8-2.05.8-.84 0-1.52-.27-2.05-.8-.53-.53-.8-1.21-.8-2.05v-53.69c0-.76.26-1.41.8-1.94.53-.53 1.18-.8 1.94-.8s1.43.27 2 .8c.57.53.86 1.18.86 1.94v12.08c0 .08.04.11.11.11.08 0 .11-.04.11-.11 2.2-4.56 5.6-8.15 10.2-10.77 4.6-2.62 9.82-3.97 15.67-4.05.68 0 1.27.25 1.77.74.49.5.74 1.08.74 1.77 0 .68-.23 1.25-.68 1.71-.46.46-1.03.68-1.71.68-7.68.08-13.95 2.51-18.81 7.3-4.87 4.79-7.3 11.1-7.3 18.92v25.31c0 .83-.27 1.51-.8 2.05z"/><path id="t" class="st4" d="M783.96 230.77c-.61 0-1.14-.23-1.6-.68s-.68-.99-.68-1.6c0-.61.23-1.14.68-1.6s.99-.68 1.6-.68h10.26c.61 0 .91-.3.91-.91v-18.01c0-.76.29-1.41.86-1.94.57-.53 1.23-.8 2-.8.76 0 1.41.27 1.94.8s.8 1.18.8 1.94v18.01c0 .61.3.91.91.91h19.15c.61 0 1.14.23 1.6.68s.68.99.68 1.6c0 .61-.23 1.14-.68 1.6s-.99.68-1.6.68h-19.15c-.61 0-.91.34-.91 1.03v33.97c0 5.78.82 9.56 2.45 11.34 1.63 1.79 4.73 2.68 9.29 2.68 2.43 0 4.79-.34 7.07-1.03.53-.15 1.04-.06 1.54.29.49.34.74.82.74 1.42 0 1.6-.8 2.58-2.39 2.96-2.58.61-5.17.91-7.75.91-6.31 0-10.64-1.31-13-3.93-2.36-2.62-3.53-7.39-3.53-14.31v-34.3c0-.68-.3-1.03-.91-1.03h-10.28z"/><path id="a2" class="st4" d="M709.4 284.35c-5.24 0-9.42-1.58-12.54-4.73-3.12-3.15-4.67-7.39-4.67-12.71 0-2.81.51-5.38 1.54-7.7 1.03-2.32 2.7-4.5 5.02-6.55 2.32-2.05 5.66-3.65 10.03-4.79 4.37-1.14 9.59-1.71 15.68-1.71h6.38c.68 0 1.03-.34 1.03-1.03v-3.31c0-5.24-1.16-8.93-3.48-11.06-2.32-2.13-6.4-3.19-12.25-3.19-6.23 0-12.39 1.07-18.47 3.19-.61.23-1.18.17-1.71-.17s-.8-.82-.8-1.42c0-1.75.84-2.89 2.51-3.42 6.08-1.98 12.24-2.96 18.47-2.96 7.83 0 13.32 1.5 16.47 4.5 3.15 3 4.73 8.23 4.73 15.67v37.62c0 .76-.25 1.39-.74 1.88-.5.5-1.12.74-1.88.74-.76 0-1.39-.25-1.88-.74-.5-.49-.74-1.12-.74-1.88v-8.89c0-.08-.04-.11-.11-.11-.15 0-.23.04-.23.11-2.13 3.95-5.13 7.05-9.01 9.29-3.88 2.25-8.33 3.37-13.35 3.37zm15.05-33.97c-17.86 0-26.79 5.36-26.79 16.07 0 4.03 1.16 7.22 3.48 9.58 2.32 2.36 5.42 3.53 9.29 3.53 5.93 0 10.98-2.07 15.16-6.21 4.18-4.14 6.27-9.48 6.27-16.02v-5.93c0-.68-.34-1.03-1.03-1.03h-6.38z"/><path id="g" class="st4" d="M651.72 283.21c-7.07 0-12.69-2.64-16.87-7.92-4.18-5.28-6.27-12.63-6.27-22.06 0-10.79 2.18-18.56 6.55-23.31 4.37-4.75 9.9-7.13 16.59-7.13 8.74 0 15.35 3.46 19.84 10.37 0 .15.08.23.23.23.07 0 .11-.04.11-.11v-6.73c0-.76.27-1.39.8-1.88s1.18-.74 1.94-.74 1.39.25 1.88.74c.49.5.74 1.12.74 1.88v53.81c0 10.11-2.11 17.48-6.33 22.12-4.22 4.63-10.85 6.95-19.89 6.95-5.09 0-9.73-.61-13.91-1.82-1.67-.53-2.51-1.64-2.51-3.31 0-.61.26-1.08.8-1.42.53-.34 1.1-.4 1.71-.17 4.25 1.44 8.89 2.17 13.91 2.17 7.3 0 12.56-1.88 15.79-5.64 3.23-3.76 4.84-9.97 4.84-18.64v-7.41c0-.07-.04-.11-.11-.11-.15 0-.23.04-.23.11-4.41 6.68-10.95 10.02-19.61 10.02zm1.14-55.86c-12.54 0-18.81 8.63-18.81 25.88 0 8.13 1.67 14.4 5.02 18.81 3.34 4.41 7.94 6.61 13.79 6.61 5.02 0 9.41-1.86 13.17-5.59 3.76-3.72 5.64-8.21 5.64-13.45v-12.88c0-5.24-1.9-9.78-5.7-13.62-3.8-3.84-8.17-5.76-13.11-5.76z"/><path id="n" class="st4" d="M573.86 282.42c-.53.53-1.18.8-1.94.8s-1.41-.27-1.94-.8a2.65 2.65 0 01-.8-1.94v-53.92c0-.76.25-1.39.74-1.88s1.12-.74 1.88-.74c.76 0 1.39.25 1.88.74.49.5.74 1.12.74 1.88l.11 7.75c0 .08.04.11.11.11l.23-.23c5.4-7.6 12.16-11.4 20.29-11.4 6.92 0 11.91 1.9 14.99 5.7 3.08 3.8 4.62 10.26 4.62 19.38v32.6c0 .76-.27 1.41-.8 1.94s-1.18.8-1.94.8-1.39-.27-1.88-.8c-.5-.53-.74-1.18-.74-1.94v-32.03c0-8.21-1.22-13.77-3.65-16.7-2.43-2.92-6.35-4.39-11.74-4.39-4.33 0-8.65 2.09-12.94 6.27-4.29 4.18-6.44 8.36-6.44 12.54v34.31c.02.77-.25 1.41-.78 1.95z"/><path id="a1" class="st4" d="M524.04 284.35c-5.24 0-9.42-1.58-12.54-4.73-3.12-3.15-4.67-7.39-4.67-12.71 0-2.81.51-5.38 1.54-7.7 1.03-2.32 2.7-4.5 5.02-6.55 2.32-2.05 5.66-3.65 10.03-4.79 4.37-1.14 9.59-1.71 15.68-1.71h6.38c.68 0 1.03-.34 1.03-1.03v-3.31c0-5.24-1.16-8.93-3.48-11.06-2.32-2.13-6.4-3.19-12.25-3.19-6.23 0-12.39 1.07-18.47 3.19-.61.23-1.18.17-1.71-.17s-.8-.82-.8-1.42c0-1.75.84-2.89 2.51-3.42 6.08-1.98 12.24-2.96 18.47-2.96 7.83 0 13.32 1.5 16.47 4.5 3.15 3 4.73 8.23 4.73 15.67v37.62c0 .76-.25 1.39-.74 1.88-.5.5-1.12.74-1.88.74-.76 0-1.39-.25-1.88-.74-.5-.49-.74-1.12-.74-1.88v-8.89c0-.08-.04-.11-.11-.11-.15 0-.23.04-.23.11-2.13 3.95-5.13 7.05-9.01 9.29-3.89 2.25-8.33 3.37-13.35 3.37zm15.05-33.97c-17.86 0-26.79 5.36-26.79 16.07 0 4.03 1.16 7.22 3.48 9.58 2.32 2.36 5.42 3.53 9.29 3.53 5.93 0 10.98-2.07 15.16-6.21 4.18-4.14 6.27-9.48 6.27-16.02v-5.93c0-.68-.34-1.03-1.03-1.03h-6.38z"/><path id="m" class="st4" d="M425.32 282.42c-.53.53-1.18.8-1.94.8s-1.41-.27-1.94-.8a2.65 2.65 0 01-.8-1.94v-53.92c0-.76.25-1.39.74-1.88s1.12-.74 1.88-.74c.76 0 1.41.25 1.94.74.53.5.8 1.12.8 1.88v6.5c0 .08.04.11.11.11.15 0 .23-.04.23-.11 4.25-6.84 9.61-10.26 16.07-10.26 7.83 0 12.92 3.95 15.28 11.86 0 .08.04.11.11.11.15 0 .23-.04.23-.11 4.03-7.9 9.76-11.86 17.21-11.86 5.93 0 10.28 1.81 13.05 5.42 2.77 3.61 4.16 9.41 4.16 17.38v34.88c0 .76-.27 1.41-.8 1.94s-1.18.8-1.94.8-1.41-.27-1.94-.8a2.65 2.65 0 01-.8-1.94v-33.74c0-7.14-.99-12.16-2.96-15.05-1.98-2.89-5.28-4.33-9.92-4.33-3.34 0-6.65 1.84-9.92 5.53-3.27 3.69-4.9 7.62-4.9 11.8v35.8c0 .76-.27 1.41-.8 1.94s-1.18.8-1.94.8-1.41-.27-1.94-.8a2.65 2.65 0 01-.8-1.94v-33.74c0-7.22-1.01-12.25-3.02-15.1-2.01-2.85-5.3-4.28-9.86-4.28-3.34 0-6.65 1.84-9.92 5.53-3.27 3.69-4.9 7.62-4.9 11.8v35.8c.03.74-.24 1.38-.77 1.92z"/></g><g id="logo"><path id="shape4_1_" class="st4" d="M382.69 309.7a7.51 7.51 0 00-4.4-3.74l-119.9-38.36c-.76-.24-1.54-.37-2.32-.37-1.99 0-3.94.81-5.35 2.22l-.87.87c-.85.85-1.47 1.86-1.84 3-1.27 3.96.91 8.23 4.87 9.51l119.9 38.35c.75.25 1.53.37 2.32.37 2 0 3.93-.82 5.34-2.22l.01.01.87-.87a7.538 7.538 0 001.37-8.77z"/><path id="shape_3" class="st4" d="M268.96 93.12l41.12 167.46c1.12 4.55 4.91 5.29 10.15 6.32l.38.07 30.86 2.16c1.25 0 2.49-.59 3.61-1.7l.01.01.87-.87c2.22-2.22 3.31-5.94 2.6-8.85L317.43 90.24c-.58-2.37-1.52-3.78-3.15-4.71-1.49-.85-3.63-1.34-7.38-1.68l-30.67-2.14c-1.83 0-3.34.59-4.51 1.76l-.87.86-.01.01h.01c-1.95 1.96-2.71 5.45-1.89 8.78z"/><path id="shape2_1_" class="st4" d="M255.46 223.22l-.05-168.33c0-6.21-4-11.64-9.95-13.54l-73.82-22.93a14.05 14.05 0 00-4.27-.66c-3 0-5.99.97-8.4 2.74-.58.43-1.14.9-1.64 1.41l-.87.87-.01.01.01.01a14.269 14.269 0 00-4.17 10.04l.05 162.74c0 10.49-3.24 20.21-8.68 26-.67.63-1.27 1.14-1.86 1.56-2.72 1.97-5.83 2.97-9.24 2.97-2.16 0-4.48-.41-6.91-1.21L10.74 187.72c-.75-.24-1.53-.37-2.32-.37-1.99 0-3.94.81-5.34 2.21l-.87.87c-.85.85-1.47 1.87-1.84 3.01-.62 1.92-.46 3.96.46 5.75.92 1.8 2.48 3.13 4.4 3.75l114.91 37.17c3.96 1.3 7.87 1.96 11.62 1.96 8.2 0 14.32-3.19 18.02-5.86a33.18 33.18 0 004.03-3.45l.87-.87c4.19-4.19 7.65-9.79 10-16.19 2.37-6.44 3.62-13.72 3.62-21.04l-.01-22.97 71.19 22.71.01 29.66c0 7.87-.53 14.4-1.57 19.42-1 4.8-2.5 8.37-4.46 10.59-.37.33-.69.58-.99.77-1.29.85-3 1.28-5.1 1.28-3.67 0-8.45-1.27-14.23-3.76-.96-.41-1.96-.62-3-.62-1.99 0-3.93.8-5.34 2.21l-.87.87.01.01a7.54 7.54 0 00-1.59 2.33c-1.65 3.82.11 8.27 3.93 9.93 7.68 3.32 14.52 5.01 20.32 5.01 5.11 0 9.46-1.23 13.3-3.75a23.85 23.85 0 003.74-3.06l.01.01.87-.87c4.3-4.3 7.24-10.35 9-18.51 1.32-6.18 1.95-13.4 1.94-22.7zM168.25 34.33l71.19 22.11.01 39.57-71.19-22.72-.01-38.96zm.02 55.97l71.19 22.7.02 64.43-71.19-22.72-.02-64.41z"/><path id="shape1_1_" class="st4" d="M56.27 175.47c0 5.23 3.35 9.81 8.34 11.4l59.53 18.92c1.19.37 2.41.56 3.61.56 2.53 0 5.04-.82 7.08-2.3.47-.34.93-.74 1.37-1.19l.01.01.01-.01.86-.86c2.23-2.23 3.52-5.32 3.51-8.47l-.05-162.64c0-5.23-3.35-9.81-8.34-11.4L72.67.55C71.51.19 70.29 0 69.07 0c-2.54 0-5.05.82-7.08 2.31-.49.36-.96.76-1.39 1.19l-.87.87.01.01a12.03 12.03 0 00-3.52 8.46l.05 162.63zM72.19 17.4l52.39 16.65.02 69.26-52.39-16.9-.02-69.01zm.03 86.02l52.39 16.91.02 68.62-52.39-16.65-.02-68.88z"/></g></g></g></svg>
